<?xml version="1.0" encoding="UTF-8"?>
<svg id="Layer_1" data-name="Layer 1" xmlns="http://www.w3.org/2000/svg" viewBox="0 0 200 51">
  <defs>
    <style>
      .cls-1 {
        fill: #2a6cb4;
        fill-rule: evenodd;
      }
    </style>
  </defs>
  <path class="cls-1" d="m74.98,49.88h-.17c0-.08-.04-.21-.04-.25s0-.12-.12-.12h-.25v.37h-.12v-.87h.37c.17,0,.29.04.29.21,0,.12-.04.17-.08.21.04.04.08.08.08.17v.17s0,.04.04.04v.08Zm-.17-.62c0-.12-.08-.12-.12-.12h-.29v.25h.25c.08,0,.17-.04.17-.12h0Zm.7.16c0-.5-.41-.91-.95-.91-.5,0-.91.41-.91.91,0,.54.41.95.91.95.54,0,.95-.41.95-.95Zm-.12,0c0,.46-.37.79-.83.79s-.79-.33-.79-.79c0-.41.33-.79.79-.79s.83.37.83.79Zm50.95-16.71c0,1.24-.79,1.82-2.19,1.82h-2.69v-1.24h2.69c.25,0,.45-.04.54-.12.08-.08.16-.21.16-.37s-.08-.33-.16-.41c-.08-.08-.25-.12-.5-.12-1.28-.04-2.89.04-2.89-1.78,0-.83.54-1.74,1.98-1.74h2.77v1.24h-2.56c-.25,0-.41,0-.54.08-.12.12-.21.25-.21.46s.12.33.29.41c.17.04.33.08.54.08h.74c.79,0,1.28.17,1.61.45.25.29.41.66.41,1.24h0Zm-5.83-1.24c-.33-.29-.83-.45-1.61-.45h-.74c-.21,0-.37-.04-.54-.08-.17-.08-.29-.21-.29-.41s.04-.33.21-.46c.12-.08.29-.08.54-.08h2.56v-1.24h-2.77c-1.49,0-1.99.91-1.99,1.74,0,1.82,1.61,1.74,2.9,1.78.25,0,.41.04.5.12.08.08.17.25.17.41s-.08.29-.17.37c-.12.08-.29.12-.54.12h-2.69v1.24h2.69c1.41,0,2.19-.58,2.19-1.82,0-.58-.17-.95-.41-1.24h0Zm-5.29,1.86h-3.27v-1.16h3.18v-1.16h-3.18v-1.08h3.27v-1.2h-4.63v5.79h4.63v-1.2Zm-6.12-4.3c-.46-.25-.99-.29-1.7-.29h-3.18v5.79h1.41v-2.11h1.49c.5,0,.79.04.99.25.25.29.25.79.25,1.16v.7h1.36v-1.12c0-.54-.04-.79-.21-1.08-.12-.17-.37-.37-.7-.5.37-.12.99-.62.99-1.53,0-.66-.25-1.03-.7-1.28h0Zm-7.86-.29h-4.42l-1.78,1.9-1.7-1.9h-5.58v5.79h5.5l1.78-1.9,1.7,1.9h2.69v-1.94h1.74c1.2,0,2.4-.33,2.4-1.94,0-1.57-1.24-1.9-2.32-1.9h0Zm6.74,2.4c-.21.08-.41.08-.66.08l-1.7.04v-1.32h1.7c.25,0,.5,0,.66.12.17.08.29.25.29.5s-.12.46-.29.58Zm-6.74.29h-1.82v-1.49h1.82c.5,0,.83.21.83.7s-.33.79-.83.79h0Zm-5.33.21l2.15-2.27v4.67l-2.15-2.4Zm-3.35,1.7h-3.43v-1.16h3.06v-1.16h-3.06v-1.08h3.47l1.53,1.7-1.57,1.7Zm29.94-8.77h-1.98l-2.61-4.34v4.34h-2.81l-.54-1.28h-2.89l-.54,1.28h-1.61c-.66,0-1.53-.17-2.03-.66-.46-.5-.7-1.16-.7-2.19,0-.87.12-1.65.74-2.27.41-.46,1.16-.66,2.11-.66h1.32v1.24h-1.32c-.5,0-.79.08-1.08.33-.25.25-.37.7-.37,1.32s.12,1.08.37,1.36c.21.21.58.29.95.29h.62l1.98-4.55h2.07l2.32,5.46v-5.46h2.15l2.44,4.01v-4.01h1.41v5.79h0Zm-16.42-5.79h-1.41v5.79h1.41v-5.79Zm-2.94.25c-.45-.25-.95-.25-1.65-.25h-3.18v5.79h1.36v-2.11h1.49c.5,0,.83.04,1.03.25.25.29.21.79.21,1.12v.74h1.41v-1.16c0-.5-.04-.74-.25-1.03-.12-.17-.37-.37-.66-.5.37-.17.99-.62.99-1.53,0-.66-.29-1.03-.74-1.32h0Zm-5.83,4.34h-3.23v-1.16h3.18v-1.2h-3.18v-1.03h3.23v-1.2h-4.63v5.79h4.63v-1.2Zm-5.67-4.59h-2.27l-1.7,3.93-1.82-3.93h-2.23v5.46l-2.36-5.46h-2.07l-2.48,5.79h1.49l.54-1.28h2.89l.54,1.28h2.81v-4.55l2.03,4.55h1.2l2.03-4.55v4.55h1.41v-5.79h0Zm22.41,3.27l-.95-2.27-.95,2.27h1.9Zm-11.99-.91c-.21.12-.41.12-.7.12h-1.7v-1.28h1.7c.25,0,.54,0,.7.08.17.12.25.29.25.54s-.08.45-.25.54h0Zm-22.83.91l.95-2.27.95,2.27h-1.9ZM126.01.62h-49.34v20.84l1.7-3.85h3.6l.5.95v-.95h4.22l.95,2.07.91-2.07h13.44c.62,0,1.16.12,1.57.45v-.45h3.68v.45c.62-.33,1.41-.45,2.32-.45h5.33l.5.95v-.95h3.93l.58.95v-.95h3.85v8.11h-3.89l-.74-1.24v1.24h-4.84l-.54-1.32h-1.2l-.54,1.32h-2.52c-.99,0-1.74-.25-2.23-.5v.5h-6v-1.86c0-.25-.04-.29-.21-.29h-.21v2.15h-11.58v-1.03l-.41,1.03h-2.44l-.41-.99v.99h-4.67l-.5-1.32h-1.2l-.54,1.32h-2.4v24.44h49.34v-14.85c-.54.25-1.28.37-2.03.37h-3.6v-.5c-.41.33-1.16.5-1.86.5h-11.33v-1.86c0-.25-.04-.25-.25-.25h-.21v2.11h-3.72v-2.19c-.62.29-1.32.29-1.94.29h-.41v1.9h-4.55l-1.08-1.24-1.2,1.24h-7.32v-8.11h7.44l1.08,1.24,1.16-1.24h5c.58,0,1.53.08,1.94.5v-.5h4.47c.45,0,1.32.08,1.9.5v-.5h6.74v.5c.37-.33,1.08-.5,1.7-.5h3.76v.5c.41-.29.99-.5,1.74-.5h2.56V.62Z"/>
</svg>