<?xml version="1.0" encoding="UTF-8"?>
<svg id="Layer_1" data-name="Layer 1" xmlns="http://www.w3.org/2000/svg" viewBox="0 0 200 51">
  <defs>
    <style>
      .cls-1 {
        fill: #fff;
      }

      .cls-2 {
        fill: #1a1919;
      }
    </style>
  </defs>
  <path class="cls-2" d="m67.53,49.88h3.49V1.04h-3.47v48.82l-.02.02Zm4.6,0h1.09V1.04h-1.09v48.84Zm2.03,0h1.95V1.04h-1.95v48.84Zm3.83,0h1.07V1.04h-1.07v48.84Zm1.54,0h.84V1.04h-.84v48.84Zm-14.66,0h1.09V1.04h-1.09v48.84Zm-2.38,0h1.93V1.04h-1.93v48.84Zm23.7,0h3.49V1.04h-3.49v48.84Zm4.6,0h1.09V1.04h-1.09v48.84Zm2.03,0h1.93V1.04h-1.93v48.84Zm3.81,0h1.09V1.04h-1.09v48.84Zm1.56,0h.84V1.04h-.86v48.82l.02.02Zm-14.66,0h1.09V1.04h-1.09v48.84Zm-2.38,0h1.93V1.04h-1.95v48.82l.02.02Zm19.26,0h1.93V1.04h-1.92v48.82l-.02.02Zm3.81,0h1.09V1.04h-1.09v48.84Zm1.56,0h.83V1.04h-.83v48.84Zm3.96,0h1.09V1.04h-1.09v48.84Zm-2.38,0h1.93V1.04h-1.92v48.82l-.02.02Zm4.92,0h1.09V1.04h-1.09v48.84Zm1.56,0h.83V1.04h-.83v48.84Zm3.96,0h1.09V1.04h-1.09v48.84Zm-2.38,0h1.93V1.04h-1.93v48.84Zm4.43,0h3.49V1.04h-3.49v48.84Zm4.6,0h1.09V1.04h-1.09v48.84Zm2.03,0h1.93V1.04h-1.93v48.84Zm3.81,0h1.09V1.04h-1.09v48.84Zm1.56,0h.84V1.04h-.84v48.84Zm2.2,0h3.51V1.04h-3.49v48.82l-.02.02Z"/>
  <path class="cls-1" d="m66.42,49.96h67.11v-19.62h-67.09v19.62h-.02Z"/>
  <path class="cls-2" d="m67.69,49.21v-17.74h6.23c1.05-.05,2.09.13,3.06.53.76.35,1.39.94,1.8,1.67.43.7.65,1.51.66,2.33,0,1.59-.9,3.05-2.33,3.76.94.27,1.76.84,2.33,1.63.55.79.83,1.73.81,2.69,0,.8-.16,1.58-.49,2.31-.27.64-.69,1.2-1.22,1.65-.54.41-1.16.72-1.82.88-.88.22-1.78.32-2.69.3h-6.35Zm2.22-10.29h3.59c.71.03,1.42-.04,2.1-.21.51-.14.95-.45,1.26-.88.3-.46.45-1.01.43-1.56,0-.55-.13-1.09-.41-1.56-.25-.44-.65-.78-1.13-.94-.82-.2-1.67-.28-2.52-.24h-3.32v5.39Zm0,8.21h4.13c.5.01,1.01-.02,1.5-.09.45-.07.89-.23,1.28-.47.36-.25.64-.6.83-1,.23-.47.35-.98.34-1.5.01-.61-.16-1.21-.49-1.73-.31-.48-.77-.85-1.31-1.03-.79-.23-1.62-.33-2.44-.3h-3.83v6.12Zm12.34-4.36c-.15-1.94.53-3.85,1.88-5.26,1.02-.95,2.38-1.47,3.77-1.45,1.54-.04,3.03.6,4.06,1.75,1.11,1.34,1.68,3.05,1.58,4.79.06,1.33-.18,2.66-.69,3.89-.44.92-1.15,1.7-2.03,2.22-.88.52-1.89.78-2.91.77-1.55.06-3.05-.58-4.09-1.73-1.12-1.41-1.68-3.18-1.56-4.98Zm2.1,0c-.11,1.31.25,2.62,1,3.7,1.12,1.41,3.16,1.64,4.56.52.19-.15.37-.33.52-.52.76-1.1,1.12-2.42,1.01-3.76.09-1.28-.27-2.56-1.01-3.61-1.12-1.4-3.17-1.63-4.57-.5-.19.15-.35.32-.5.5-.75,1.07-1.11,2.37-1.01,3.68v-.02Zm11.55,6.44h2.03v-17.74h-2.05v17.74h.02Zm13.41-4.17l2.12.3c-.26,1.2-.92,2.28-1.86,3.06-.99.75-2.2,1.12-3.44,1.07-1.58.07-3.1-.56-4.17-1.73-1.1-1.37-1.65-3.11-1.54-4.86-.12-1.81.44-3.6,1.56-5.03,1.01-1.17,2.49-1.83,4.04-1.78,1.51-.05,2.96.6,3.94,1.75,1.09,1.4,1.63,3.16,1.52,4.94v.58h-8.98c0,1.18.39,2.33,1.13,3.25.62.73,1.54,1.14,2.5,1.13.69.02,1.37-.21,1.92-.64.61-.54,1.04-1.24,1.26-2.03Zm-6.68-3.49h6.7c-.01-.87-.27-1.72-.75-2.44-.59-.81-1.53-1.28-2.53-1.26-.9-.02-1.76.35-2.37,1.01-.66.74-1.03,1.69-1.05,2.69Zm15.81,5.71l.28,1.93c-.5.12-1.02.18-1.54.19-.6.03-1.2-.09-1.73-.38-.38-.23-.67-.57-.84-.98-.22-.85-.3-1.72-.24-2.59v-7.42h-1.5v-1.69h1.5v-3.15l2.03-1.31v4.51h2.07v1.69h-2.07v7.51c-.03.41.01.82.11,1.22.07.18.19.33.36.43.21.11.45.16.69.15.3,0,.59-.04.88-.09m1.26-4.51c-.15-1.94.52-3.85,1.86-5.26,1.03-.96,2.39-1.48,3.79-1.45,1.54-.04,3.03.6,4.06,1.75,1.11,1.34,1.68,3.05,1.58,4.79.05,1.33-.19,2.66-.71,3.89-.44.92-1.15,1.7-2.03,2.22-.88.51-1.88.78-2.89.77-1.55.06-3.05-.58-4.09-1.73-1.12-1.41-1.68-3.18-1.56-4.98Zm2.08,0c-.1,1.31.26,2.62,1.01,3.7,1.12,1.4,3.17,1.63,4.57.5.19-.15.35-.32.5-.5.76-1.1,1.11-2.42,1.01-3.76.09-1.28-.27-2.56-1.01-3.61-1.12-1.4-3.17-1.63-4.57-.5-.19.15-.35.32-.5.5-.75,1.07-1.11,2.37-1.01,3.68v-.02Z"/>
</svg>