<?xml version="1.0" encoding="UTF-8"?>
<svg id="Layer_1" data-name="Layer 1" xmlns="http://www.w3.org/2000/svg" viewBox="0 0 200 51">
  <defs>
    <style>
      .cls-1 {
        fill: #fff;
      }

      .cls-2 {
        fill: #164b79;
      }

      .cls-3 {
        fill: #1a1919;
      }
    </style>
  </defs>
  <g>
    <path class="cls-3" d="m70.73,31.25c0-1.15-.62-1.07-1.2-1.09v-.33h3.75c2.58-.25,4.88,1.64,5.14,4.22.01.1.02.21.02.31,0,1.26-.74,4.48-5.3,4.48h-3.61v-.33c.78-.08,1.15-.1,1.2-.99v-6.27Zm1.26,6.06c0,1.01.72,1.11,1.34,1.11,1.99.07,3.66-1.49,3.73-3.48,0-.18,0-.36-.02-.54.16-2.14-1.44-4-3.57-4.16-.16-.01-.31-.01-.47,0-.54,0-.76.04-1.01.04v7.03Zm6.93,1.2h.25c.35,0,.62,0,.62-.41v-3.51c0-.58-.21-.66-.68-.91v-.21l1.38-.47c.07-.04.15-.06.23-.06.06,0,.1.08.1.19v4.95c0,.43.27.43.62.43h.23v.33h-2.74v-.33Zm1.38-7.57c-.35,0-.63-.28-.63-.63s.28-.63.63-.63.62.28.62.62h0c0,.35-.27.63-.62.64Zm2.6,3.71c0-.47-.14-.62-.74-.85v-.25c.57-.18,1.14-.38,1.69-.62.04,0,.08.02.08.12v.82c.62-.55,1.4-.89,2.23-.95,1.09,0,1.48.8,1.48,1.81v3.32c0,.43.29.43.64.43h.25v.33h-2.76v-.33h.23c.37,0,.62,0,.62-.41v-3.36c0-.74-.45-1.09-1.18-1.09-.54.08-1.06.29-1.51.62v3.82c0,.43.29.43.64.43h.25v.33h-2.76v-.33h.21c.37,0,.62,0,.62-.41v-3.44m6.62.62c-.03.25-.03.51,0,.76-.04,1.12.78,2.09,1.9,2.23.68-.04,1.31-.35,1.75-.87l.16.19c-.51.84-1.39,1.37-2.37,1.44-1.43-.06-2.54-1.28-2.48-2.71,0-.03,0-.06,0-.09,0-2.54,1.71-3.3,2.62-3.3,1.14-.06,2.11.82,2.16,1.96,0,.04,0,.07,0,.11,0,.07,0,.14,0,.21l-.12.08h-3.63Zm2.29-.41c.33,0,.37-.16.37-.33.05-.6-.4-1.13-1.01-1.17-.04,0-.09,0-.13,0-.78,0-1.32.58-1.48,1.51h2.25Zm1.77,3.65h.35c.35,0,.62,0,.62-.41v-3.65c0-.41-.47-.47-.68-.58v-.21c.95-.39,1.44-.72,1.59-.72.06,0,.1.04.1.16v1.15h.02c.33-.49.87-1.32,1.65-1.32.39-.02.72.27.74.66,0,0,0,.01,0,.02.02.34-.24.64-.58.66-.01,0-.03,0-.04,0-.39,0-.39-.31-.82-.31-.54.07-.94.53-.95,1.07v3.03c0,.43.25.43.62.43h.72v.33h-1.81c-.51,0-1.02,0-1.53,0v-.33Zm4.97-1.44c.07.85.76,1.52,1.61,1.57.49.08.96-.26,1.04-.75,0-.06.01-.12.01-.18,0-1.53-2.8-1.03-2.8-3.09.05-.98.88-1.73,1.86-1.68.05,0,.09,0,.14.01.51.01,1.01.14,1.46.37l.08,1.32h-.29c-.02-.73-.63-1.3-1.36-1.28-.01,0-.03,0-.04,0-.5-.06-.95.3-1.01.8,0,.02,0,.03,0,.05,0,1.53,2.99,1.05,2.99,3.09,0,.82-.68,1.75-2.21,1.75-.56-.02-1.1-.17-1.59-.45l-.14-1.48.25-.06m15.34-4.89h-.31c-.19-1.34-1.42-2.27-2.76-2.1-2.04,0-3.68,1.67-3.68,3.71,0,.14,0,.28.03.42-.15,2.3,1.56,4.29,3.86,4.48,1.3,0,2.39-.96,2.58-2.25l.31.08-.31,1.88c-.89.43-1.86.66-2.85.7-2.53.19-4.74-1.71-4.93-4.25-.02-.21-.02-.43,0-.64.11-2.6,2.29-4.62,4.89-4.54,1.05.05,2.08.28,3.05.68l.12,1.86m.45,6.33h.27c.35,0,.62,0,.62-.41v-7.22c0-.82-.21-.87-.7-1.01v-.21c.46-.15.91-.33,1.34-.56.09-.06.19-.11.29-.14.06,0,.1.08.1.21v8.91c0,.43.27.43.62.43h.25v.33h-2.78v-.33Zm8.29-.37c0,.23.14.25.37.25h.52v.25c-.63.09-1.25.23-1.86.41l-.06-.04v-1.03c-.6.63-1.42,1.01-2.29,1.07-.77.02-1.41-.6-1.43-1.37,0-.06,0-.12,0-.17v-3.3c0-.35-.04-.66-.76-.72v-.25l1.65-.1c.14,0,.14.1.14.37v3.34c0,.39,0,1.51,1.13,1.51.58-.1,1.12-.37,1.55-.78v-3.51c0-.25-.62-.37-1.07-.52v-.23c1.15-.08,1.88-.19,2-.19.1,0,.1.1.1.23v4.78Zm2.58-4.27c.52-.52,1.19-.84,1.92-.93,1.39.06,2.46,1.24,2.4,2.63,0,.02,0,.05,0,.07.08,1.79-1.3,3.31-3.09,3.4-.62,0-1.23-.16-1.77-.45l-.39.29-.27-.14c.12-.76.18-1.52.19-2.29v-5.57c0-.82-.21-.87-.68-1.01v-.21c.46-.15.9-.33,1.32-.56.09-.06.19-.11.29-.14.08,0,.1.08.1.21v4.7Zm0,3.51c.03.72.6,1.29,1.32,1.32,1.38,0,1.96-1.34,1.96-2.5.06-1.25-.83-2.35-2.06-2.56-.47.05-.91.27-1.24.62v3.11h.02Zm-55.66,8.99h.08c.27,0,.54-.04.54-.41v-3.67c0-.37-.27-.41-.54-.41h-.08v-.21l1.03.02,1.11-.02v.21h-.1c-.25,0-.52.04-.52.41v3.69c0,.35.27.39.52.39h.1v.21l-1.11-.02-1.03.02v-.21Z"/>
    <path class="cls-3" d="m71.67,46.62l-1.11-.06-1.03.04h-.04v-.29h.12c.27,0,.49,0,.49-.35v-3.71c0-.33-.23-.35-.49-.35h-.12v-.27h2.21v.27h-.12c-.27,0-.49.02-.49.37v3.69c0,.33.23.35.49.35h.12v.29l-.02.02Zm-.04-.06v-.16h-.06c-.25,0-.56-.04-.56-.41v-3.71c0-.37.31-.41.56-.41h.06v-.14h-2.06v.14h.06c.27,0,.56.04.56.41v3.71c0,.37-.29.41-.56.41h-.06v.16l1.01-.04,1.07.04h-.02Zm4.85-1.36h.02v-2.66c.05-.32-.17-.61-.49-.66-.04,0-.09,0-.13,0h-.12v-.21l.99.02.87-.02v.21h-.12c-.29,0-.62.06-.62.91v3.2c0,.23,0,.47.04.7h-.27l-3.63-4.04v2.91c0,.62.12.82.66.82h.12v.21l-.93-.02-.97.02v-.21h.1c.49,0,.62-.33.62-.89v-2.97c0-.34-.28-.62-.62-.62h-.1v-.23l.82.02.62-.02,3.11,3.53"/>
    <path class="cls-3" d="m76.89,46.72h-.29l-3.57-4v2.83c0,.62.1.78.62.78h.16v.29h-.02l-.93-.06-.97.04h-.02v-.29h.12c.47,0,.62-.29.62-.85v-2.97c0-.34-.28-.62-.62-.62h-.12v-.25h1.48l3.09,3.49v-2.6c0-.56-.39-.62-.6-.62h-.19v-.27h1.94v.27h-.14c-.29,0-.58.02-.58.87v3.2c0,.23,0,.47.04.7v.04l-.04.02Zm-.27-.06h.23c-.02-.23-.03-.45-.02-.68v-3.2c0-.85.35-.93.64-.93h.08v-.14h-1.79v.14h.12c.34-.02.64.23.66.57,0,.04,0,.07,0,.11v2.68h-.04v.02l-3.13-3.53h-1.4v.14h.06c.36,0,.66.3.66.66v2.97c0,.56-.14.91-.66.93h-.06v.14l.93-.04.87.04v-.14h-.06c-.56,0-.7-.25-.7-.87v-2.97l3.65,4.08h-.02Zm-.14-1.46l.02-.02v.02h-.02Zm0,0v-.02.02Zm2.17-3.18c-.54,0-.56.12-.66.64h-.21l.08-.6c.03-.2.04-.4.04-.6h.16c.06.21.23.21.41.21h3.63c.21,0,.37,0,.37-.21h.19l-.08.58v.58l-.23.08c0-.27-.04-.68-.52-.68h-1.15v3.75c0,.54.25.6.58.6h.14v.21l-1.15-.02-1.18.02v-.21h.12c.39,0,.58-.04.58-.6v-3.75h-1.13Z"/>
    <path class="cls-3" d="m81.41,46.62l-1.15-.04-1.18.04h-.04v-.29h.16c.39,0,.54,0,.56-.56v-3.71h-1.11v-.06h1.18v3.77c0,.58-.23.62-.62.62h-.1v.16l1.15-.04,1.11.04v-.14h-.1c-.33,0-.62-.1-.62-.64v-3.77h1.2c.47,0,.54.41.54.66l.16-.06c0-.37.03-.73.08-1.09h-.1c-.04.21-.23.21-.41.21h-3.65c-.16,0-.35,0-.41-.21h-.12c0,.19-.02.37-.04.56,0,.21-.04.39-.08.58h.16c.08-.49.14-.66.68-.64v.06c-.54,0-.52.08-.62.62h-.29v-.02l.08-.62c.03-.19.04-.38.04-.58v-.02h.23c.06.21.19.21.37.21h3.65c.21,0,.33,0,.35-.21v-.02h.04l.21.04-.02.02-.08.58v.58h-.02l-.25.1v-.04c-.02-.27-.06-.64-.49-.64h-1.13v3.71c0,.52.23.56.56.56h.16v.29h-.02Zm1.46-.25h.1c.25,0,.52-.04.52-.41v-3.67c0-.37-.27-.41-.52-.41h-.1v-.21l1.75.02,1.79-.02.02,1.07-.21.06c-.04-.45-.12-.82-.87-.82h-.97v1.86h.82c.41,0,.52-.25.56-.62h.21v1.61l-.21.04c-.04-.41-.06-.68-.54-.68h-.82v1.63c0,.45.39.45.82.45.85,0,1.24-.06,1.44-.85l.21.04c-.1.37-.18.74-.25,1.11l-1.9-.02-1.86.02v-.21"/>
    <path class="cls-3" d="m86.65,46.62l-1.9-.04-1.86.04h-.04v-.29h.12c.27,0,.49,0,.49-.35v-3.71c0-.33-.23-.35-.49-.35h-.12v-.27h3.61v.02c-.02.36-.02.72,0,1.07v.02l-.27.08v-.04c-.04-.45-.1-.78-.82-.78h-.95v1.77h.82c.41,0,.47-.21.52-.6v-.02h.27v.02c-.03.55-.03,1.1,0,1.65h-.02l-.25.06v-.04c-.04-.41-.06-.66-.52-.66h-.82v1.61c0,.41.37.41.82.41.87,0,1.2-.04,1.4-.82v-.02h.04l.21.06v.02c-.09.37-.16.74-.23,1.11v.04h-.02Zm-.04-.06l.23-1.07-.12-.04c-.21.8-.62.87-1.44.87-.45,0-.89,0-.91-.49v-1.65h.89c.49-.02.54.27.58.68l.14-.04c-.03-.52-.03-1.05,0-1.57h-.14c-.04.37-.16.62-.6.62h-.87v-1.9h1.03c.72,0,.82.37.87.82l.14-.06c-.01-.34-.01-.69,0-1.03l-1.77.04-1.71-.02v.14h.06c.25,0,.56.04.56.41v3.71c0,.37-.31.41-.56.41h-.06v.16l1.84-.04,1.86.04Zm1.22-4.12c0-.54-.29-.56-.49-.56h-.12v-.21l1.09.02,1.11-.02c.89,0,1.67.25,1.67,1.24-.02.58-.41,1.08-.97,1.24l1.2,1.79c.13.26.39.43.68.43v.21l-.68-.02-.66.02c-.53-.72-1.02-1.48-1.44-2.27h-.47v1.51c0,.54.25.56.58.56h.12v.21l-1.22-.02-1.03.02v-.21h.14c.27,0,.49-.12.49-.37v-3.59.02Zm.91,1.61h.33c.7,0,1.09-.27,1.09-1.09.04-.53-.37-1-.9-1.03-.04,0-.09,0-.13,0-.14,0-.28.02-.41.04v2.08h.02Z"/>
    <path class="cls-3" d="m91.99,46.62l-.68-.04c-.21,0-.43.04-.68.02-.53-.72-1.01-1.48-1.44-2.27h-.41v1.48c0,.52.21.52.54.52h.14v.29h-.02l-1.22-.04-1.03.04v-.29h.12c.25,0,.45-.1.47-.33v-3.59c0-.49-.27-.49-.47-.49h-.16v-.27h2.25c.89,0,1.71.23,1.71,1.26-.02.58-.41,1.08-.97,1.24l1.18,1.79c.13.25.38.41.66.41h.04v.27h-.02Zm-3.26-2.35h.47c.43.79.92,1.54,1.44,2.27h1.32v-.14c-.28,0-.54-.16-.68-.41l-1.24-1.86h.04c.56-.15.95-.64.97-1.22,0-.97-.76-1.2-1.65-1.2h-2.19v.14h.1c.21,0,.54.04.54.56v3.59c0,.27-.27.41-.54.41h-.1v.14l.99-.04,1.18.04v-.14h-.08c-.33,0-.62-.04-.62-.62v-1.53h.04Zm0-.21h-.04v-2.14h.02c.14-.02.27-.02.41-.02.55-.04,1.02.38,1.05.92,0,.04,0,.09,0,.13,0,.82-.41,1.13-1.11,1.13l-.33-.02Zm.33-.04c.7,0,1.05-.25,1.05-1.07.04-.51-.35-.95-.86-.99-.04,0-.09,0-.13,0-.12,0-.25,0-.37.02v2.04h.31Zm7.69,1.18h.02v-2.66c.05-.32-.17-.61-.49-.66-.04,0-.09,0-.13,0h-.14v-.21l.99.02.87-.02v.21h-.12c-.29,0-.62.06-.62.91v3.2c0,.23,0,.47.04.7h-.27l-3.61-4.04v2.91c0,.62.12.82.66.82h.12v.21l-.91-.02-.97.02v-.21h.1c.49,0,.62-.33.62-.89v-2.97c0-.34-.28-.62-.62-.62h-.1v-.23l.82.02.62-.02,3.11,3.53Z"/>
    <path class="cls-3" d="m97.16,46.72h-.29l-3.57-4v2.83c0,.62.1.78.62.78h.16v.29h-.02l-.91-.04-.97.04h-.02v-.29h.12c.47,0,.62-.29.62-.85v-2.97c0-.34-.28-.62-.62-.62h-.12v-.25h1.46l3.09,3.49v-2.6c0-.56-.37-.62-.58-.62h-.19v-.27h1.92v.27h-.14c-.29,0-.58.02-.58.87v3.2c0,.23,0,.47.04.7v.04h-.04Zm-.27-.06h.23c-.02-.23-.03-.45-.02-.68v-3.2c0-.85.35-.93.64-.93h.08v-.14h-1.79v.14h.12c.34-.02.64.23.66.57,0,.04,0,.07,0,.11v2.68h-.04v.02l-3.13-3.53h-1.4v.14h.06c.36,0,.66.3.66.66v2.97c0,.56-.14.91-.66.93h-.06v.14l.93-.04.87.04v-.14h-.08c-.56,0-.7-.25-.7-.87v-2.97l3.65,4.08Zm-.14-1.46l.02-.02v.02h-.02Zm0,0v-.02.02Zm2.23.37c-.07.18-.12.37-.14.56,0,.21.29.25.52.25h.08v.21c-.54-.03-1.07-.03-1.61,0v-.21h.04c.29.01.54-.18.62-.45l1.11-3.24c.11-.28.2-.57.27-.87.22-.08.42-.19.62-.31.03,0,.06,0,.08,0,.01,0,.03,0,.04,0l.06.21,1.3,3.67.25.7c.07.19.27.31.47.29h.04v.21c-.67-.03-1.35-.03-2.02,0v-.21h.06c.16,0,.45-.02.45-.21-.03-.18-.08-.35-.14-.52l-.29-.82h-1.59l-.21.74h-.02Zm1.03-3.09l-.66,1.98h1.3l-.64-2v.02Z"/>
    <path class="cls-3" d="m102.73,46.62l-.99-.06-1.05.04h-.04v-.29h.1c.16,0,.41-.02.41-.16-.03-.17-.08-.34-.14-.49l-.27-.8h-1.55l-.21.72c-.07.17-.13.35-.16.54,0,.16.27.21.49.21h.12v.29h-.04l-.85-.04-.76.04h-.02v-.29h.06c.26,0,.49-.17.58-.41l1.13-3.24c.11-.3.2-.6.27-.91.22-.08.44-.17.64-.29.02-.01.04-.02.06-.02.03,0,.07.01.08.04l.06.19,1.3,3.67c.08.25.16.52.27.72.07.16.24.26.41.25h.08v.29h-.02l.02.02Zm-2.02-.06l1.03-.04.93.04v-.14c-.22.02-.42-.1-.49-.31-.1-.21-.19-.47-.27-.72l-1.28-3.67-.06-.19h-.04s-.01,0-.02,0c-.19.12-.4.22-.62.29-.07.3-.16.6-.27.89l-1.13,3.22c-.07.28-.33.49-.62.49h-.02v.14l.72-.04.82.04v-.14h-.06c-.21,0-.54-.04-.56-.29.04-.19.09-.38.16-.56h.02-.02l.23-.74h1.65l.27.82c.07.17.12.34.14.52,0,.21-.31.23-.47.25h-.04v.14Zm-1.44-2.06l.68-2.06h.06l.66,2.06h-1.4Zm.1-.08h1.24l-.62-1.88-.62,1.88Zm.58-1.94h.02-.02Zm3.09-.45c-.54,0-.56.12-.66.64h-.21l.08-.6c.03-.2.04-.4.04-.6h.16c.06.21.23.21.41.21h3.63c.21,0,.37,0,.39-.21h.16l-.08.58v.58l-.21.08c-.04-.27-.06-.68-.54-.68h-1.15v3.75c0,.54.25.6.58.6h.14v.21l-1.18-.02-1.18.02v-.21h.12c.39,0,.6-.04.6-.6v-3.75h-1.15"/>
    <path class="cls-3" d="m105.81,46.62l-1.18-.06-1.18.04h-.04v-.29h.16c.39,0,.56,0,.56-.56v-3.71h-1.11v-.06h1.18v3.77c0,.58-.23.62-.62.62h-.1v.19l1.15-.04,1.11.04v-.14h-.1c-.33,0-.62-.1-.62-.64v-3.77h1.2c.47,0,.54.41.54.66l.16-.06v-.56l.08-.54h-.1c-.04.21-.23.21-.41.21h-3.65c-.16,0-.35,0-.41-.21h-.12c0,.19-.01.37-.04.56,0,.21-.04.39-.08.58h.16c.08-.49.14-.66.68-.64v.06c-.54,0-.52.08-.62.62h-.29v-.02l.08-.6c.03-.2.04-.4.04-.6v-.02h.23c.06.21.21.21.37.21h3.65c.21,0,.35,0,.35-.21v-.02h.04l.21.04v.02l-.1.58v.58h-.02l-.25.1v-.04c-.02-.27-.06-.64-.49-.64h-1.11v3.71c0,.52.21.56.54.56h.16v.29h-.02m1.53-.25h.1c.25,0,.52-.04.52-.41v-3.67c0-.37-.27-.41-.52-.41h-.1v-.21l1.03.02,1.11-.02v.21h-.1c-.25,0-.52.04-.52.41v3.69c0,.35.27.39.52.39h.1v.21l-1.11-.02-1.03.02v-.21Z"/>
    <path class="cls-3" d="m109.46,46.62l-1.11-.06-1.03.04h-.02v-.29h.12c.25,0,.49,0,.49-.35v-3.71c0-.33-.25-.35-.49-.35h-.12v-.27h2.21v.27h-.14c-.25,0-.47.02-.47.37v3.69c0,.33.21.35.47.35h.14v.29l-.04.02Zm-.02-.06v-.14h-.08c-.25,0-.54-.06-.54-.43v-3.71c0-.37.29-.41.54-.41h.08v-.14h-2.12v.14h.08c.25,0,.56.04.56.41v3.71c0,.37-.31.41-.56.41h-.06v.16l.99-.04,1.09.04h.02Zm2.83-4.99c1.36-.11,2.56.9,2.67,2.26,0,.06,0,.12,0,.17.06,1.42-1.05,2.62-2.47,2.68-.06,0-.11,0-.17,0-1.36.09-2.54-.94-2.63-2.3,0-.07,0-.14,0-.21-.02-1.41,1.1-2.58,2.52-2.6.03,0,.06,0,.08,0m.1,4.81c1.36,0,1.61-1.2,1.61-2.23s-.56-2.27-1.73-2.27c-1.24,0-1.59,1.09-1.59,2.04,0,1.24.58,2.47,1.71,2.47"/>
    <path class="cls-3" d="m109.64,44.16c-.02-1.43,1.12-2.62,2.56-2.64.02,0,.04,0,.06,0v.06c-1.4-.01-2.55,1.11-2.56,2.52,0,.02,0,.04,0,.06-.01,1.36,1.07,2.47,2.43,2.48.06,0,.11,0,.17,0,1.41.03,2.58-1.08,2.62-2.49,0-.05,0-.1,0-.15,0-1.34-1.1-2.43-2.44-2.43-.08,0-.16,0-.24.01v-.06c1.37-.14,2.59.86,2.73,2.24,0,.08.01.16.01.24.06,1.45-1.07,2.66-2.51,2.72-.06,0-.11,0-.17,0-1.39.09-2.58-.96-2.68-2.35,0-.07,0-.14,0-.21m.99-.25c0-.95.37-2.06,1.65-2.06,1.18,0,1.73,1.26,1.73,2.29s-.25,2.27-1.63,2.27v-.06c1.34,0,1.57-1.18,1.57-2.21s-.54-2.23-1.69-2.25c-1.2,0-1.55,1.07-1.57,2.02,0,1.24.58,2.43,1.69,2.43v.06c-1.15,0-1.73-1.24-1.75-2.5m9.07,1.28v-2.66c.05-.32-.17-.61-.49-.66-.04,0-.09,0-.13,0h-.14v-.21l.99.02.87-.02v.21h-.1c-.31,0-.62.06-.62.91v3.2c-.01.23,0,.47.02.7h-.25l-3.65-4.04v2.91c0,.62.12.82.66.82h.12v.21l-.91-.02-.95.02v-.21h.1c.47,0,.62-.33.62-.89v-2.97c0-.34-.28-.62-.62-.62h-.1v-.23l.8.02.62-.02,3.13,3.53"/>
    <path class="cls-3" d="m120.1,46.72h-.31l-3.55-4v2.83c0,.62.1.78.62.78h.14v.29h-.02l-.91-.04-.95.04h-.04v-.29h.14c.45,0,.58-.29.6-.85v-2.97c0-.34-.28-.62-.62-.62h-.12v-.25h1.48l3.09,3.49v-2.6c0-.56-.37-.62-.58-.62h-.21v-.27h1.94v.27h-.12c-.29,0-.6.02-.62.87v3.2c0,.23.02.47.06.7v.04h-.04Zm-.27-.06h.21c-.02-.23-.03-.45-.02-.68v-3.2c0-.85.35-.93.66-.93h.06v-.14h-1.77v.14h.12c.34,0,.62.27.62.62,0,.02,0,.04,0,.06v2.68l-.02.02-3.13-3.53h-1.4v.14h.06c.36-.01.67.27.68.64,0,0,0,.01,0,.02v2.97c0,.56-.16.91-.66.93h-.08v.14l.93-.04.89.04v-.14h-.1c-.56,0-.68-.25-.68-.87v-2.97l3.65,4.08Zm-.14-1.46v-.02.02Zm-.02,0v-.02.02Zm2.25.37c-.07.18-.13.37-.16.56,0,.21.29.25.54.25h.06v.21c-.54-.03-1.07-.03-1.61,0v-.21h.04c.29.01.54-.18.62-.45l1.13-3.24c.1-.28.19-.57.25-.87.22-.08.44-.19.64-.31.02,0,.04,0,.06,0,.01,0,.03,0,.04,0l.06.21,1.3,3.67c.08.23.16.49.27.7.07.19.26.3.45.29h.04v.21c-.67-.03-1.35-.03-2.02,0v-.21h.08c.16,0,.41-.02.41-.21-.02-.18-.06-.35-.12-.52l-.27-.82h-1.61l-.21.74Zm1.03-3.09h-.02l-.66,1.98h1.32l-.66-2,.02.02Z"/>
    <path class="cls-3" d="m125.64,46.62l-.97-.04-1.03.04h-.04v-.29h.1c.16,0,.41-.02.41-.16-.03-.17-.08-.34-.14-.49l-.27-.8h-1.57l-.21.72c-.06.17-.11.35-.14.54,0,.16.25.21.49.21h.08v.29h-.04l-.82-.04-.78.04h-.02v-.29h.06c.27,0,.51-.16.6-.41l1.11-3.24c.11-.3.21-.6.29-.91.21-.08.42-.17.62-.29.03,0,.06,0,.08,0,.03,0,.06,0,.08.02l.06.19,1.28,3.67c.08.25.16.52.27.72.07.16.24.26.41.25h.08v.29h-.02.02Zm-2-.06l1.03-.04.95.04v-.16h-.02c-.21.03-.41-.09-.49-.29l-.25-.72-1.3-3.67c-.02-.06-.04-.12-.06-.19h-.02s-.03,0-.04,0c-.19.12-.4.22-.62.29-.07.3-.16.6-.27.89l-1.13,3.22c-.07.28-.33.49-.62.49h-.02v.14l.72-.04.82.04v-.14h-.04c-.23,0-.56-.04-.56-.29.03-.19.08-.38.14-.56h.04-.04l.23-.74h1.65l.27.82c.07.17.12.34.14.52,0,.21-.31.23-.45.25h-.06v.14Zm-1.44-2.06l.7-2.06h.04l.68,2.06h-1.42Zm.1-.08h1.24l-.62-1.88-.62,1.88Zm5.11,1.48c0,.27.21.37.41.39.31.03.62.03.93,0,.27-.04.52-.19.68-.41.1-.15.17-.32.21-.49h.21l-.25,1.2-1.86-.02-1.86.02v-.21h.1c.25,0,.52-.04.52-.47v-3.61c0-.37-.27-.41-.52-.41h-.1v-.21l1.11.02,1.05-.02v.21h-.16c-.27,0-.47,0-.47.39v3.63Z"/>
    <path class="cls-3" d="m129.58,46.62l-1.86-.04-1.86.04v-.29h.12c.25,0,.49,0,.49-.41v-3.63c0-.35-.25-.37-.49-.37h-.14v-.27h2.25v.27h-.21c-.27,0-.43,0-.45.35v3.63c0,.27.19.33.41.35l.37.02c.18,0,.36,0,.54-.02.26-.03.5-.16.66-.37.1-.15.17-.32.21-.49v-.02h.27v.04l-.27,1.2-.04.02Zm0-.06l.23-1.13h-.14c-.04.18-.11.34-.21.49-.17.22-.42.36-.7.39-.18.02-.36.02-.54.02h-.39c-.23-.04-.45-.14-.45-.43v-3.63c0-.41.25-.41.52-.41h.14v-.14h-2.12v.14h.08c.25,0,.56.04.56.41v3.63c0,.45-.31.49-.56.49h-.08v.16l1.84-.04,1.81.04h.02Zm.21-5.09c.41.01.73.35.72.76-.01.41-.35.73-.76.72-.4-.01-.72-.34-.72-.74-.01-.4.3-.73.7-.74.01,0,.03,0,.04,0h.02Zm0,1.36c.34,0,.62-.28.62-.62,0-.34-.28-.62-.62-.62s-.62.28-.62.62h0c-.01.33.25.61.58.62.01,0,.03,0,.04,0Zm-.39-.21v-.04c.1-.02.1,0,.1-.08v-.54c0-.08,0-.1-.1-.1v-.04h.39c.12,0,.25.06.25.21,0,.1-.08.19-.19.21l.12.19c.05.06.1.12.16.16v.02h-.14c-.06,0-.12-.14-.27-.33h-.08v.25s.02.04.12.06v.02l-.37.02Zm.25-.41h.1c.08,0,.12-.06.12-.19s-.06-.16-.14-.16h-.08v.35Z"/>
  </g>
  <path class="cls-1" d="m85.93,16.82c.01-6.57,5.35-11.89,11.92-11.88,6.57.01,11.89,5.35,11.88,11.92-.01,6.57-5.35,11.89-11.92,11.88-6.57-.01-11.89-5.35-11.88-11.92h0"/>
  <path class="cls-2" d="m105,16.59c0-2.96-1.83-5.62-4.6-6.68v13.36c2.77-1.06,4.59-3.72,4.6-6.68Zm-9.69,6.68v-13.36c-3.69,1.41-5.53,5.55-4.12,9.24.73,1.9,2.22,3.39,4.12,4.12Zm2.52-17.96c-6.24-.01-11.31,5.04-11.32,11.28-.01,6.24,5.04,11.31,11.28,11.32,6.24.01,11.31-5.04,11.32-11.28,0,0,0-.01,0-.02.01-6.23-5.03-11.29-11.26-11.3h-.02Zm0,23.67c-6.81.05-12.38-5.44-12.44-12.25-.16-6.72,5.15-12.29,11.87-12.46.19,0,.38,0,.56,0h3.2c6.95-.16,12.71,5.34,12.87,12.29,0,.05,0,.1,0,.15-.31,6.87-5.99,12.28-12.87,12.25l-3.2.02Z"/>
</svg>