<?xml version="1.0" encoding="UTF-8"?>
<svg id="Layer_1" data-name="Layer 1" xmlns="http://www.w3.org/2000/svg" xmlns:xlink="http://www.w3.org/1999/xlink" viewBox="0 0 200 51">
  <defs>
    <style>
      .cls-1 {
        fill: #fff;
      }

      .cls-2 {
        fill: #fdda30;
      }

      .cls-3 {
        mask: url(#mask-1);
      }

      .cls-3, .cls-4 {
        fill: none;
      }

      .cls-5 {
        fill: #e8452e;
      }

      .cls-6 {
        fill: #299ad3;
      }

      .cls-4 {
        mask: url(#mask);
      }

      .cls-7 {
        fill: #010101;
      }
    </style>
    <mask id="mask" x="74.5" y="20.07" width="5.69" height="13.85" maskUnits="userSpaceOnUse">
      <g id="a">
        <path class="cls-1" d="m74.5,20.07v13.85h5.69v-13.83h-5.69v-.02Z"/>
      </g>
    </mask>
    <mask id="mask-1" x="80.63" y="28.03" width="12.2" height="8.23" maskUnits="userSpaceOnUse">
      <g id="b">
        <path class="cls-1" d="m80.63,36.26h12.2v-8.23h-12.2v8.23Z"/>
      </g>
    </mask>
  </defs>
  <path class="cls-7" d="m64.13,2.18h71.74v46.63h-71.74V2.18Z"/>
  <path class="cls-1" d="m108.68,27.02c-.76-3.15-3.93-5.09-7.08-4.33-3.15.76-5.09,3.93-4.33,7.08.16.67.44,1.3.82,1.88l5.79-2.53,2.42-1.08v.02l2.37-1.04Zm-9.04,1.69l-.02-.3c0-1.85,1.52-3.35,3.37-3.34.95,0,1.86.42,2.49,1.13l-5.85,2.51Zm7.42,3.89c-1.96,1.95-5.02,2.25-7.32.72l1.38-2.12c1.32.85,3.06.69,4.2-.39l1.74,1.79Zm2.39-1.45v-11.08h2.1v10.78c-.02.11.04.22.14.25l1.83.72-.82,2.15-2.15-.91c-.81-.36-1.08-.84-1.08-1.9"/>
  <g class="cls-4">
    <path class="cls-6" d="m80.18,22.95c-2.25,1.95-2.5,5.36-.55,7.61.17.19.35.38.55.55l-2.6,2.8c-3.8-3.4-4.13-9.24-.72-13.04.25-.28.53-.55.81-.8,0,0,2.49,2.91,2.51,2.87v.02Z"/>
  </g>
  <g class="cls-3">
    <path class="cls-5" d="m92.79,28.76c-.96,5.01-5.81,8.29-10.82,7.32-.46-.09-.91-.21-1.34-.37l1.24-3.6c2.81,1.02,5.92-.43,6.94-3.24.1-.28.18-.56.23-.85l3.75.74Z"/>
  </g>
  <path class="cls-2" d="m92.77,25.18l-3.73.86c-.55-2.94-3.38-4.87-6.32-4.32-.29.05-.57.13-.85.23l-1.24-3.6c4.81-1.71,10.09.8,11.8,5.6.14.4.26.8.34,1.21"/>
  <path class="cls-1" d="m117.07,25.77c-1.39,1.2-1.54,3.29-.34,4.68.11.12.22.24.34.34l-1.6,1.72c-2.34-2.09-2.54-5.69-.44-8.03.16-.17.32-.34.5-.49l1.54,1.76v.02Zm7.77,3.57c-.59,3.08-3.57,5.1-6.66,4.51-.28-.05-.55-.13-.82-.22l.75-2.22c1.73.64,3.65-.25,4.28-1.98.06-.17.11-.35.15-.53l2.3.45Zm-.02-2.22l-2.3.54c-.35-1.81-2.09-3-3.9-2.65-.17.03-.34.08-.51.14l-.75-2.22c2.96-1.05,6.21.51,7.25,3.47.09.24.16.49.21.75"/>
</svg>