<?xml version="1.0" encoding="UTF-8"?>
<svg id="Layer_1" data-name="Layer 1" xmlns="http://www.w3.org/2000/svg" xmlns:xlink="http://www.w3.org/1999/xlink" viewBox="0 0 200 51">
  <defs>
    <style>
      .cls-1 {
        fill: #fff;
      }

      .cls-2 {
        mask: url(#mask-2);
      }

      .cls-2, .cls-3, .cls-4 {
        fill: none;
      }

      .cls-5 {
        fill: #fde606;
      }

      .cls-3 {
        mask: url(#mask-1);
      }

      .cls-6 {
        fill: #d26528;
      }

      .cls-4 {
        mask: url(#mask);
      }
    </style>
    <mask id="mask" x="64.72" y="3.33" width="70.56" height="44.5" maskUnits="userSpaceOnUse">
      <g id="a">
        <rect class="cls-1" x="64.72" y="3.33" width="70.56" height="44.5" rx="4.35" ry="4.35"/>
      </g>
    </mask>
    <mask id="mask-1" x="119.39" y="20.89" width="6.58" height="10.64" maskUnits="userSpaceOnUse">
      <g id="b">
        <path class="cls-1" d="m125.97,31.52v-10.62h-6.58v10.64h6.58v-.02Z"/>
      </g>
    </mask>
    <mask id="mask-2" x="91.44" y="16.62" width="3.39" height="3.33" maskUnits="userSpaceOnUse">
      <g id="c">
        <path class="cls-1" d="m94.83,16.62h-3.38v3.32h3.38v-3.32Z"/>
      </g>
    </mask>
  </defs>
  <path class="cls-6" d="m65.9,3.33h68.21v44.33h-68.21V3.33Z"/>
  <g class="cls-4">
    <g>
      <path class="cls-1" d="m86.5,17.2v5.51h-5.42v-5.51h-3.32v14.32h3.32v-6h5.46v6h3.24v-14.32h-3.29.02Zm24.96,7.95c.02-1.13.92-2.05,2.05-2.1,1.04.01,1.87.86,1.85,1.9,0,.07,0,.13-.01.2h-3.89Zm6.84,2.22c.08-.42.12-.85.12-1.28,0-2.57-1.3-5.18-4.72-5.18-2.9-.06-5.3,2.24-5.36,5.14,0,.13,0,.27,0,.4,0,3.26,2.05,5.29,5.66,5.29,1.3.03,2.6-.19,3.82-.63l-.43-2.18c-.94.29-1.93.44-2.92.43-1.53,0-2.9-.65-3-1.98h6.82Z"/>
      <g class="cls-3">
        <path class="cls-1" d="m119.47,31.52h3.29v-5.29c0-.24.01-.48.05-.72.24-1.04,1.21-1.74,2.27-1.64.3,0,.59.03.89.09v-3.04c-.23-.03-.47-.05-.7-.03-1.31.04-2.46.9-2.86,2.15h-.09l-.1-1.93h-2.83c.03.9.09,1.89.09,3.43v6.97Z"/>
      </g>
      <g class="cls-2">
        <path class="cls-5" d="m93.15,16.62c.91.03,1.63.79,1.6,1.7-.03.91-.79,1.63-1.7,1.6-.89-.03-1.6-.76-1.6-1.65,0-.92.76-1.66,1.69-1.65,0,0,.01,0,.02,0"/>
      </g>
      <path class="cls-1" d="m91.44,21.1h3.39v5.87c-.1,1.07.68,2.02,1.75,2.12.08,0,.15.01.23,0,0-2.64,0-5.35-.1-8h2.83l.17,1.53c1.33-2.63,5.54-2.05,6.96.17,1.47,2.28,1.96,8.83-4.93,8.83h-1.6l.02,3.99h-3.38v-3.99c-3.65,0-5.34-2.28-5.34-4.67v-5.87Zm8.64,8.01h1.65c1.18.15,2.25-.68,2.4-1.86.01-.1.02-.19.02-.29,0-1.09-.09-3.55-2.13-3.55-2.35,0-1.98,3.07-1.96,4.66l.02,1.02v.02Z"/>
    </g>
  </g>
</svg>