<?xml version="1.0" encoding="UTF-8"?>
<svg id="Layer_1" data-name="Layer 1" xmlns="http://www.w3.org/2000/svg" viewBox="0 0 200 51">
  <defs>
    <style>
      .cls-1 {
        fill: #eb621d;
      }

      .cls-2 {
        fill: #f59e1f;
      }

      .cls-3 {
        fill: #e41522;
      }
    </style>
  </defs>
  <rect class="cls-1" x="90.7" y="8.78" width="18.61" height="33.43"/>
  <path class="cls-3" d="m91.88,25.5c0-6.52,2.99-12.69,8.12-16.72-9.23-7.26-22.6-5.66-29.86,3.58-7.26,9.23-5.66,22.6,3.58,29.86,7.71,6.06,18.57,6.06,26.28,0-5.13-4.03-8.13-10.19-8.12-16.72Z"/>
  <path class="cls-2" d="m134.4,25.5c0,11.74-9.52,21.26-21.26,21.26-4.77,0-9.39-1.6-13.14-4.55,9.23-7.26,10.83-20.63,3.57-29.86-1.04-1.33-2.24-2.53-3.57-3.57,9.23-7.26,22.6-5.66,29.86,3.58,2.95,3.75,4.55,8.37,4.55,13.14Z"/>
  <path class="cls-2" d="m132.38,38.68v-.68h.28v-.14h-.7v.14h.28v.68h.15Zm1.36,0v-.83h-.22l-.25.57-.25-.57h-.22v.83h.15v-.62l.23.54h.16l.23-.54v.62h.15Z"/>
</svg>