<?xml version="1.0" encoding="UTF-8"?>
<svg id="Layer_1" data-name="Layer 1" xmlns="http://www.w3.org/2000/svg" viewBox="0 0 200 51">
  <defs>
    <style>
      .cls-1 {
        fill: #4cb8a9;
      }

      .cls-2 {
        fill: #98979b;
      }
    </style>
  </defs>
  <path class="cls-2" d="m87.49,45.91c-.46.02-.84-.33-.87-.78,0-.03,0-.05,0-.08v-26.09c0-5.51,4.49-9.99,9.99-9.99h8.11c5.51,0,9.95,4.49,9.95,9.99v6.77c0,5.51-4.49,9.99-9.99,9.99h-12.71c-.47,0-.85-.38-.85-.85s.38-.85.85-.85h12.71c4.6,0,8.3-3.74,8.3-8.3v-6.77c0-4.56-3.7-8.26-8.26-8.26h0l-8.11-.04c-4.56,0-8.26,3.7-8.26,8.26h0v26.13c0,.47-.39.87-.87.87Zm35.88-10.07c-.46,0-.83-.37-.83-.83V13.56c0-1.61-1.3-2.91-2.91-2.91h-3.54c-.47,0-.85-.38-.85-.85s.38-.85.85-.85h3.54c2.52,0,4.6,2.05,4.6,4.6v21.44c0,.43-.39.83-.87.83Z"/>
  <path class="cls-1" d="m122.63,6.8l-1.57-1.57c-.4-.4-.41-1.04,0-1.45,0,0,0,0,0,0l1.57-1.57c.39-.39,1.02-.39,1.42,0l1.61,1.57c.39.39.39,1.02,0,1.42l-1.57,1.61c-.39.39-1.06.39-1.46,0Z"/>
  <path class="cls-2" d="m133.57,35.72h-3.46c-.47,0-.85-.38-.85-.85s.38-.85.85-.85h3.46c1.57,0,3.07-.63,4.21-1.73l8.14-8.03c1.38-1.38,3.62-1.38,5,0l8.14,7.99c1.1,1.14,2.6,1.73,4.17,1.73h2.83c.47,0,.85.38.85.85s-.38.85-.85.85h-2.83c-2.01,0-3.93-.79-5.35-2.2l-8.14-7.99c-.72-.73-1.89-.74-2.62-.02,0,0-.01.01-.02.02l-8.14,7.99c-1.46,1.46-3.34,2.24-5.39,2.24Zm0-26.76h-3.46c-.47,0-.85.38-.85.85s.38.85.85.85h3.46c1.57,0,3.07.59,4.21,1.73l8.14,7.99c1.38,1.38,3.62,1.38,5,0l8.14-7.95c1.1-1.12,2.6-1.76,4.17-1.77h2.83c.47,0,.85-.38.85-.85s-.38-.85-.85-.85h-2.83c-2.01,0-3.93.79-5.35,2.24l-8.14,7.99c-.72.73-1.89.74-2.62.02,0,0-.01-.01-.02-.02l-8.14-8.03c-1.43-1.43-3.37-2.22-5.39-2.2Z"/>
  <path class="cls-1" d="m42.95,38.63c1.73,0,3.38-.71,4.6-1.97l6.69-6.69c.49-.49,1.28-.49,1.77,0l6.69,6.73c1.26,1.26,2.91,1.97,4.64,1.97h1.34l-8.46,8.46c-2.68,2.64-6.96,2.64-9.6,0l-8.5-8.5h.83Zm24.4-23.69c-1.73,0-3.38.67-4.6,1.93l-6.73,6.69c-.49.49-1.28.49-1.77,0l-6.69-6.69c-1.23-1.21-2.88-1.89-4.6-1.89h-.79l8.46-8.5c2.63-2.65,6.92-2.66,9.57-.03,0,0,.02.02.03.03l8.46,8.46h-1.34Z"/>
  <path class="cls-1" d="m35.08,21.98l5.12-5.04h2.75c1.18,0,2.36.47,3.23,1.34l6.69,6.69c1.24,1.25,3.26,1.26,4.51.02,0,0,.01-.01.02-.02l6.73-6.69c.87-.87,2.05-1.38,3.23-1.38h3.31l5.12,5.12c2.6,2.64,2.6,6.93,0,9.56l-5.12,5.12h-3.31c-1.18,0-2.36-.51-3.23-1.38l-6.69-6.69c-1.28-1.22-3.29-1.22-4.56,0l-6.69,6.69c-.87.83-2.05,1.34-3.23,1.34h-2.75l-5.12-5.08c-2.65-2.63-2.66-6.92-.03-9.57,0,0,.02-.02.03-.03Z"/>
</svg>